<svg width="1000" height="1000" viewBox="0 0 1000 1000" fill="none" xmlns="http://www.w3.org/2000/svg">
<path fill-rule="evenodd" clip-rule="evenodd" d="M434.121 36H434.104C430.305 36.0002 426.549 36.1489 422.838 36.4376C367.097 40.7747 321.772 76.7125 301.94 115.661C294.273 130.717 286.383 134.701 270.67 134.465C230.905 133.866 200.088 152.051 177.932 184.674C159.223 212.22 152.302 243.181 155.2 276.013C156.714 293.156 152.246 306.932 141.121 320.037C121.199 343.505 120.412 369.446 135.066 395.984C139.232 403.529 144.234 410.665 149.354 417.62C157.974 429.33 163.697 442.348 166.917 456.354C170.981 474.027 176.223 491.347 181.465 508.669C183.476 515.315 185.488 521.963 187.433 528.63C188.715 533.024 190.368 537.378 192.024 541.74C196.402 553.272 200.803 564.864 198.432 577.419C191.049 616.511 202.657 651.946 218.045 686.598C224.649 701.47 234.877 715.089 251.524 718.942C266.507 722.409 270.549 731.29 271.622 744.574C275.404 791.42 295.077 830.755 328.434 863.599C331.59 866.706 334.743 869.821 337.894 872.933C354.431 889.269 370.961 905.598 388.233 921.201C421.363 951.13 460.233 963.979 504.219 964H504.438L504.532 964L505.886 963.995C558.956 963.632 599.81 938.243 636.475 901.657C639.111 899.069 641.659 896.53 644.159 894.039L644.168 894.03C649.317 888.899 654.267 883.967 659.378 879.209C700.251 841.158 729.027 796.795 732.12 739.216C732.695 728.522 737.172 722.747 747.758 720.474C759.651 717.921 769.341 710.761 775.888 700.836C798.727 666.208 810.864 627.752 804.76 586.653C802.048 568.399 804.294 553.424 810.699 537.194C817.603 519.698 822.818 501.555 828.034 483.41C837.923 449.002 847.815 414.587 869.234 384.568C870.434 382.886 870.987 380.733 871.538 378.59C871.759 377.727 871.981 376.865 872.244 376.037C873.663 371.57 874.585 367.126 875 362.748L875 352.21C874.056 342.607 870.474 333.524 864.145 325.457C845.273 301.401 839.697 274.776 841.814 245.167C842.921 229.686 842.005 214.335 834.958 199.554C821.976 172.325 798.793 158.658 771.958 149.204C771.806 149.15 771.654 149.097 771.502 149.043L770.952 148.851C763.907 146.382 756.93 143.938 753.174 136.53C739.255 109.075 715.56 95.64 686.291 90.8637C675.339 89.0765 667.112 84.3176 660.581 75.303C655.055 67.6755 646.958 61.2815 637.363 64.0043C620.783 68.7096 607.253 62.2766 593.565 55.7682C592.179 55.1095 590.791 54.4492 589.399 53.8005C566.978 43.3503 543.957 40.0281 520.161 48.1937C509.733 51.7721 500.288 50.7065 490.041 46.7409C470.787 39.2886 451.992 36.0011 434.121 36Z" fill="white"/>
<path d="M636.475 901.657C599.81 938.243 558.956 963.632 505.886 963.995C505.434 963.998 504.983 964 504.532 964C504.5 964 504.469 964 504.438 964C504.365 964 504.292 964 504.219 964C460.233 963.979 421.363 951.13 388.233 921.201C367.67 902.625 348.158 883.019 328.434 863.599C295.077 830.755 275.404 791.42 271.622 744.574C270.549 731.29 266.507 722.409 251.524 718.942C234.877 715.089 224.649 701.47 218.045 686.598C202.657 651.946 191.049 616.511 198.432 577.419C201.7 560.115 192.104 544.641 187.433 528.63C180.418 504.586 172.541 480.808 166.917 456.354C163.697 442.348 157.974 429.33 149.354 417.62C144.234 410.665 139.232 403.529 135.066 395.984C120.412 369.446 121.199 343.505 141.121 320.037C152.246 306.932 156.714 293.156 155.2 276.013C152.302 243.181 159.223 212.22 177.932 184.674C200.088 152.051 230.905 133.866 270.67 134.465C286.383 134.701 294.273 130.717 301.94 115.661C321.772 76.7125 367.097 40.7747 422.838 36.4376C426.549 36.1489 430.305 36.0002 434.104 36C434.109 36 434.115 36 434.121 36C451.992 36.0011 470.787 39.2886 490.041 46.7409C500.288 50.7065 509.733 51.7721 520.161 48.1937C543.957 40.0281 566.978 43.3503 589.399 53.8005C604.545 60.8598 619.104 69.1859 637.363 64.0043C646.958 61.2815 655.055 67.6755 660.581 75.303C667.112 84.3176 675.339 89.0765 686.291 90.8637C715.56 95.64 739.255 109.075 753.174 136.53C757.11 144.292 764.577 146.603 771.958 149.204C798.793 158.658 821.976 172.325 834.958 199.554C842.005 214.335 842.921 229.686 841.814 245.167C839.697 274.776 845.273 301.401 864.145 325.457C870.474 333.524 874.056 342.607 875 352.21C875.339 355.663 875.337 359.184 875 362.748C874.585 367.126 873.663 371.57 872.244 376.037C871.328 378.921 870.917 382.209 869.234 384.568C836.52 430.418 830.697 486.52 810.699 537.194C804.294 553.424 802.048 568.399 804.76 586.653C810.864 627.752 798.727 666.208 775.888 700.836C769.341 710.761 759.651 717.921 747.758 720.474C737.172 722.747 732.695 728.522 732.12 739.216C729.027 796.795 700.251 841.158 659.378 879.209C651.781 886.281 644.542 893.737 636.475 901.657ZM585.991 901.171C591.441 904.171 591.277 898.738 592.76 896.37C594.315 893.887 594.942 889.11 598.113 889.983C608.718 892.902 612.706 884.161 618.381 879.129C637.496 862.181 654.722 843.315 671.852 824.398C687.624 806.979 698.011 786.466 701.863 763.48C711.641 705.133 724.972 647.506 736.016 589.423C736.992 584.293 737.163 577.617 741.363 575.205C760.225 564.374 757.292 546.593 757.887 529.43C758.353 515.993 752.12 508.506 739.471 507.642C724.411 506.615 718.154 499.127 717.955 484.649C717.773 471.385 711.271 463.678 697.831 460.096C661.212 450.335 636.085 426.818 620.333 392.635C614.009 378.911 607.895 364.974 598.782 352.775C586.063 335.749 569.056 329.889 548.426 334.611C533.085 338.122 519.515 345.998 505.484 352.641C492.355 358.858 478.966 362.187 464.248 361.941C439.701 361.53 418.289 350.706 395.881 343.119C350.782 327.848 306.922 353.826 301.595 401.325C298.222 431.406 297.756 461.601 280.271 488.014C278.921 490.054 278.39 492.934 278.297 495.453C278.015 503.051 273.638 505.963 266.751 506.819C259.849 507.676 252.888 508.87 248.106 514.658C239.662 524.878 243.152 561.153 254.179 568.74C262.066 574.167 265.8 581.029 267.514 589.837C277.158 639.415 287.232 688.912 296.404 738.577C302.022 768.994 308.429 798.633 329.735 822.928C349.739 845.738 371.719 866.53 393.311 887.737C394.795 889.195 396.709 890.622 398.664 891.122C406.208 893.053 424.141 904.564 428.227 910.765C438.803 900.736 438.867 914.99 444.204 917.8C448.424 917.478 448.449 911.069 453.37 911.655C457.647 913.65 457.84 918.597 460.259 922.165C463.567 919.962 463.272 914.835 467.86 913.364C472.042 913.057 471.773 919.947 476.059 919.488C480.617 918.348 480.093 911.078 486.636 912.205C488.546 915.872 490.616 919.845 492.804 924.045C497.133 919.833 495.326 913.067 500.863 910.512C507.023 912.273 505.555 919.44 509.662 922.58C513.745 919.705 512.594 912.177 519.168 911.696C523.489 913.645 522.748 919.895 527.569 921.024C531.571 919.837 530.36 913.277 536.349 913.515C537.979 915.732 539.879 918.317 542.181 921.448C544.855 917.745 545.032 913.219 548.639 911.666C554.188 910.584 554.019 918.447 559.514 917.798C563.271 905.35 577.36 907.896 585.991 901.171ZM642.585 158.047C612.709 162.237 587.807 148.936 563.252 135.044C538.731 121.17 513.455 112.057 484.453 113.841C408.758 118.498 356.995 206.534 390.749 275.583C385.415 260.892 387.499 245.95 388.177 231C390.395 182.114 428.258 138.443 476.173 128.269C504.813 122.188 529.876 131.544 554.754 143.227C570.004 150.388 584.814 158.674 601.211 162.97C618.72 167.559 635.729 165.252 651.851 156.522C649.398 156.958 646.946 157.393 642.585 158.047ZM505.201 296.96C538.641 264.519 611.533 259.1 636.506 324.643C642.04 339.168 647.948 353.689 655.253 367.374C678.712 411.319 728.002 428.351 773.958 408.754C771.766 408.754 770.037 408.515 768.395 408.789C717.135 417.355 678.33 395.368 659.344 346.936C654.452 334.457 650.367 321.594 644.589 309.542C622.508 263.49 567.959 247.52 526.045 274.478C516.117 280.863 508.356 289.605 500.935 298.649C501.37 298.962 502.009 299.633 502.203 299.522C502.935 299.105 503.523 298.434 505.201 296.96ZM559.568 193.59C569.721 195.648 580.125 196.885 589.982 199.907C630.246 212.25 662.464 198.626 692.129 168.066C682.479 173.543 674.893 177.635 667.518 182.075C647.691 194.013 626.788 198.171 604.129 191.784C591.663 188.271 579.152 184.841 566.521 181.996C493.198 165.477 437.72 227.869 442.437 292.275C452.196 226.129 500.203 184.786 559.568 193.59ZM752.062 690.78C770.042 670.455 775.615 645.209 780.489 619.622C782.948 606.709 784.199 594.01 778.469 581.57C776.097 576.42 772.549 572.844 766.599 573.316C761.145 573.749 757.847 577.683 757.034 582.587C751.394 616.626 745.895 650.69 740.777 684.811C739.703 691.977 742.823 695.969 752.062 690.78ZM248.088 593.993C247.242 590.207 246.323 586.434 245.57 582.629C244.545 577.451 241.697 573.75 236.434 572.992C231.027 572.214 227.368 575.717 225.044 580.008C223.231 583.355 221.635 587.236 221.42 590.966C219.494 624.265 228.627 654.915 244.851 683.614C247.477 688.257 251.361 694.341 257.924 691.786C264.157 689.359 261.71 682.707 261.009 677.919C257.014 650.629 252.643 623.395 248.088 593.993ZM651.933 262.911C669.162 272.156 687.062 274.919 705.498 267.228C713.825 263.754 721.809 259.313 729.59 254.706C745.177 245.475 759.852 247.367 774.67 256.68C785.652 263.582 792.686 273.949 801.485 287.26C789.086 244.473 753.815 226.64 722.153 246.323C694.114 263.753 668.022 263.375 640.956 246.149C635.863 242.907 630.583 239.901 625.171 237.23C607.038 228.281 588.173 223.442 567.764 228.046C586.449 226.341 602.965 232.075 618.374 242.109C628.859 248.938 639.609 255.361 651.933 262.911ZM186.374 324.282C183.965 328.663 181.555 333.044 178.022 339.47C187.264 336.119 190.839 330.556 193.865 324.35C199.426 312.944 201.753 300.61 204.069 288.316C208.291 265.904 222.828 253.975 243.966 249.21C258.565 245.919 272.657 249.604 288.933 256.425C250.676 224.243 204.751 239.203 194.604 284.384C191.772 296.992 189.565 309.74 186.374 324.282ZM174.567 388.054C188.238 390.954 200.107 386.941 211.065 378.855C220.999 371.524 228.641 362.045 234.887 351.732C248.272 329.632 266.562 315.531 292.772 312.8C293.043 312.772 293.182 311.484 293.444 310.57C261.617 303.883 241.732 320.808 225.552 344.815C210.318 367.42 194.421 388.67 161.92 383.23C165.496 384.66 169.072 386.089 174.567 388.054ZM834.867 366.979C835.183 366.685 835.601 366.443 835.785 366.081C835.964 365.731 835.903 365.258 835.947 364.839C815.218 364.317 802.781 351.047 790.464 336.538C776.777 320.415 761.761 317.581 741.583 327.002C725.865 334.341 710.67 340.243 693.966 329.807C709.445 342.49 726.418 342.702 743.598 335.454C760.496 328.326 773.637 332.672 785.11 345.933C789.33 350.811 793.825 355.619 798.895 359.557C809.08 367.467 820.148 372.995 834.867 366.979ZM336.206 224.009C338.434 197.448 350.102 174.292 364.302 149.934C324.165 180.167 311.158 255.206 345.56 292.634C338.226 270.513 331.748 249.125 336.206 224.009ZM400.932 82.5258C413.72 78.4305 426.509 74.3352 441.83 69.4287C392.406 70.2302 356.865 89.8544 344.967 122.594C361.48 105.828 379.032 92.7733 400.932 82.5258ZM218.206 424.17C258.973 424.314 262.442 390.168 275.888 361.737C262.963 368.648 259.045 379.399 254.656 389.37C247.755 405.046 236.638 415.43 220.24 420.253C218.199 420.853 216.241 421.736 214.244 422.488C214.637 423.104 214.953 423.797 215.457 424.302C215.681 424.526 216.285 424.372 218.206 424.17ZM221.426 464.019C254.67 448.994 256.55 447.565 258.736 435.656C204.715 460.205 200.712 463.546 200.062 487.774C205.446 476.787 211.568 469.838 221.426 464.019ZM278.711 178.283C279.195 177.719 279.743 177.192 280.115 176.561C280.201 176.416 279.756 175.776 279.428 175.597C260.402 165.224 221.207 174.42 209.986 204.083C238.931 182.99 249.769 178.851 278.711 178.283ZM773.997 460.209C789.086 466.895 796.702 479.322 798.26 498.666C811.148 475.662 794.693 454.514 758.747 446.235C761.383 452.886 767.328 455.633 773.997 460.209ZM754.206 184.206C746.985 184.653 739.646 184.696 733.481 190.123C760.783 189.985 760.783 189.985 801.394 212.758C791.294 193.259 776.437 184.729 754.206 184.206ZM624.405 102.953C609.92 106.995 594.929 107.638 579.921 108.659C594.741 115.697 609.223 115.809 623.343 108.175C624.896 107.336 629.166 106.516 624.405 102.953Z" fill="white"/>
<path d="M746.842 523.751C747.426 532.579 747.6 540.352 747.746 548.126C747.87 554.708 745.724 559.899 739.275 562.8C731.33 566.373 728.708 573.59 726.659 581.365C722.806 595.986 721.249 611.065 716.722 625.595C707.018 656.738 687.394 676.336 654.364 679.814C618.553 683.585 583.255 683.937 554.216 656.868C535.528 639.448 529.119 615.967 521.429 593.035C520.196 589.356 519.325 585.555 518.107 581.87C515.544 574.116 510.434 569.546 501.973 569.202C492.753 568.827 487.375 573.938 484.529 581.936C481.342 590.889 478.694 600.035 475.879 609.118C460.545 658.601 430.042 681.18 378.061 681.228C368.128 681.237 358.037 681.477 348.287 679.927C310.606 673.936 291.72 654.237 282.035 611.763C280.018 602.919 278.208 593.995 276.968 585.016C275.638 575.388 271.259 568.277 263.256 562.622C249.231 552.714 256.413 537.892 256.696 525.422C256.905 516.229 267.673 517.464 274.455 516.055C301.141 510.508 328.202 507.017 355.373 505.979C391.88 504.584 427.946 509.272 462.832 520.301C489.371 528.692 515.317 528.709 541.703 520.067C606.271 498.919 671.305 503.902 736.395 517.409C740.171 518.193 744.111 518.984 746.842 523.751ZM604.223 533.258C592.375 535.394 580.234 536.049 568.858 540.542C546.989 549.179 540.052 574.889 554.38 594.532C557.656 593.559 557.226 590.661 557.605 588.204C562.532 556.249 567.832 550.592 599.863 543.327C609.93 541.043 620.617 540.866 630.742 534.633C621.935 531.934 614.189 533.03 604.223 533.258ZM313.469 583.433C319.181 555.106 329.429 545.447 358.352 541.999C366.416 541.038 374.124 539.502 383.603 535.19C364.078 531.17 347.087 532.67 330.375 537.564C303.893 545.32 293.989 578.461 312.463 602.047C312.792 595.664 313.052 590.624 313.469 583.433Z" fill="white"/>
<path d="M537.248 735.697C559.665 744.767 581.156 753.818 603.005 761.901C618.436 767.61 622.864 780.357 625.222 794.238C626.656 802.681 620.124 806.36 613.951 802.058C587.154 783.384 555.629 782.344 525.33 776.65C506.354 773.084 501.994 767.072 504.504 747.019C504.721 745.28 504.884 743.613 502.806 742.424C497.529 743.138 499.391 747.124 499.562 750.252C500.429 766.158 496.03 771.936 480.482 775.791C461.652 780.459 442.219 781.791 423.393 786.795C411.876 789.856 401.394 794.229 391.707 800.932C388.381 803.233 384.626 804.9 380.857 802.386C377.001 799.813 377.502 795.495 378.293 791.718C381.171 777.979 387.102 766.961 401.551 761.512C425.275 752.564 448.608 742.58 472.599 732.833C468.865 725.283 461.647 725.804 455.89 723.814C449.175 721.492 443.463 718.002 445.344 710.02C447.346 701.529 454.124 700.715 461.789 701.858C470.307 703.128 477.003 707.748 483.764 712.412C495.842 720.745 507.768 720.987 519.787 712.173C526.437 707.296 533.429 702.91 541.887 701.876C548.847 701.025 555.535 702.078 557.597 709.775C559.576 717.166 553.926 720.55 548.048 723.024C544.472 724.53 540.684 725.6 537.263 727.385C533.429 729.385 532.302 732.196 537.248 735.697Z" fill="white"/>
<path d="M530.98 781.026C546.981 785.424 561.119 792.32 576.815 793.799C580.491 794.145 583.661 795.925 583.771 800.124C583.898 804.986 580.04 807.285 576.238 807.526C567.229 808.097 557.952 808.941 549.163 807.445C536.065 805.216 523.457 805.619 510.744 808.954C507.847 809.714 504.414 811.085 501.896 810.223C478.941 802.361 455.678 808.602 432.583 808.17C426.921 808.064 419.907 807.618 419.503 800.595C419.093 793.444 426.376 794.726 431.17 793.517C439.519 791.411 448.057 789.613 455.987 786.387C469.285 780.979 482.198 778.036 495.9 784.95C500.309 787.175 505.214 786.172 509.679 783.993C516.091 780.864 522.857 780.091 530.98 781.026Z" fill="white"/>
<path d="M434.121 36H434.104M434.121 36C451.992 36.0011 470.787 39.2886 490.041 46.7409C500.288 50.7065 509.733 51.7721 520.161 48.1937C543.957 40.0281 566.978 43.3503 589.399 53.8005M434.121 36C434.115 36 434.109 36 434.104 36M434.104 36C430.305 36.0002 426.549 36.1489 422.838 36.4376C367.097 40.7747 321.772 76.7125 301.94 115.661C294.273 130.717 286.383 134.701 270.67 134.465C230.905 133.866 200.088 152.051 177.932 184.674C159.223 212.22 152.302 243.181 155.2 276.013C156.714 293.156 152.246 306.932 141.121 320.037C121.199 343.505 120.412 369.446 135.066 395.984C139.232 403.529 144.234 410.665 149.354 417.62C157.974 429.33 163.697 442.348 166.917 456.354M166.917 456.354C170.981 474.027 176.223 491.347 181.465 508.669C183.476 515.315 185.488 521.963 187.433 528.63M166.917 456.354C172.541 480.808 180.418 504.586 187.433 528.63M187.433 528.63C188.715 533.024 190.368 537.378 192.024 541.74C196.402 553.272 200.803 564.864 198.432 577.419M187.433 528.63C192.104 544.641 201.7 560.115 198.432 577.419M198.432 577.419C191.049 616.511 202.657 651.946 218.045 686.598C224.649 701.47 234.877 715.089 251.524 718.942C266.507 722.409 270.549 731.29 271.622 744.574C275.404 791.42 295.077 830.755 328.434 863.599M328.434 863.599C331.59 866.706 334.743 869.821 337.894 872.933C354.431 889.269 370.961 905.598 388.233 921.201M328.434 863.599C348.158 883.019 367.67 902.625 388.233 921.201M388.233 921.201C421.363 951.13 460.233 963.979 504.219 964M504.219 964H504.438M504.219 964C504.292 964 504.365 964 504.438 964M504.438 964L504.532 964M504.438 964C504.469 964 504.5 964 504.532 964M504.532 964L505.886 963.995M504.532 964C504.983 964 505.434 963.998 505.886 963.995M505.886 963.995C558.956 963.632 599.81 938.243 636.475 901.657M636.475 901.657C639.111 899.069 641.659 896.53 644.159 894.039L644.168 894.03C649.317 888.899 654.267 883.967 659.378 879.209M636.475 901.657C644.542 893.737 651.781 886.281 659.378 879.209M659.378 879.209C700.251 841.158 729.027 796.795 732.12 739.216C732.695 728.522 737.172 722.747 747.758 720.474C759.651 717.921 769.341 710.761 775.888 700.836C798.727 666.208 810.864 627.752 804.76 586.653C802.048 568.399 804.294 553.424 810.699 537.194M810.699 537.194C817.603 519.698 822.818 501.555 828.034 483.41C837.923 449.002 847.815 414.587 869.234 384.568M810.699 537.194C830.697 486.52 836.52 430.418 869.234 384.568M869.234 384.568C870.434 382.886 870.987 380.733 871.538 378.59M869.234 384.568C870.917 382.209 871.328 378.921 872.244 376.037M871.538 378.59C871.759 377.727 871.981 376.865 872.244 376.037M871.538 378.59L871.538 378.589C871.552 378.536 871.566 378.482 871.579 378.429M872.244 376.037C873.663 371.57 874.585 367.126 875 362.748M875 362.748L875 352.21M875 362.748C875.337 359.184 875.339 355.663 875 352.21M875 352.21C874.056 342.607 870.474 333.524 864.145 325.457C845.273 301.401 839.697 274.776 841.814 245.167C842.921 229.686 842.005 214.335 834.958 199.554C821.976 172.325 798.793 158.658 771.958 149.204M771.958 149.204C771.806 149.15 771.654 149.097 771.502 149.043M771.958 149.204C764.577 146.603 757.11 144.292 753.174 136.53M771.958 149.204C771.794 149.146 771.63 149.088 771.465 149.031L771.495 149.041L771.502 149.043M771.502 149.043L770.952 148.851C763.907 146.382 756.93 143.938 753.174 136.53M753.174 136.53C739.255 109.075 715.56 95.64 686.291 90.8637C675.339 89.0765 667.112 84.3176 660.581 75.303C655.055 67.6755 646.958 61.2815 637.363 64.0043M637.363 64.0043C620.783 68.7096 607.253 62.2766 593.565 55.7682C592.179 55.1095 590.791 54.4492 589.399 53.8005M637.363 64.0043C619.104 69.1859 604.545 60.8598 589.399 53.8005M585.991 901.171C591.441 904.171 591.277 898.738 592.76 896.37C594.315 893.887 594.942 889.11 598.113 889.983C608.718 892.902 612.706 884.161 618.381 879.129C637.496 862.181 654.722 843.315 671.852 824.398C687.624 806.979 698.011 786.466 701.863 763.48C711.641 705.133 724.972 647.506 736.016 589.423C736.992 584.293 737.163 577.617 741.363 575.205C760.225 564.374 757.292 546.593 757.887 529.43C758.353 515.993 752.12 508.506 739.471 507.642C724.411 506.615 718.154 499.127 717.955 484.649C717.773 471.385 711.271 463.678 697.831 460.096C661.212 450.335 636.085 426.818 620.333 392.635C614.009 378.911 607.895 364.974 598.782 352.775C586.063 335.749 569.056 329.889 548.426 334.611C533.085 338.122 519.515 345.998 505.484 352.641C492.355 358.858 478.966 362.187 464.248 361.941C439.701 361.53 418.289 350.706 395.881 343.119C350.782 327.848 306.922 353.826 301.595 401.325C298.222 431.406 297.756 461.601 280.271 488.014C278.921 490.054 278.39 492.934 278.297 495.453C278.015 503.051 273.638 505.963 266.751 506.819C259.849 507.676 252.888 508.87 248.106 514.658C239.662 524.878 243.152 561.153 254.179 568.74C262.066 574.167 265.8 581.029 267.514 589.837C277.158 639.415 287.232 688.912 296.404 738.577C302.022 768.994 308.429 798.633 329.735 822.928C349.739 845.738 371.719 866.53 393.311 887.737C394.795 889.195 396.709 890.622 398.664 891.122C406.208 893.053 424.141 904.564 428.227 910.765C438.803 900.736 438.867 914.99 444.204 917.8C448.424 917.478 448.449 911.069 453.37 911.655C457.647 913.65 457.84 918.597 460.259 922.165C463.567 919.962 463.272 914.835 467.86 913.364C472.042 913.057 471.773 919.947 476.059 919.488C480.617 918.348 480.093 911.078 486.636 912.205C488.546 915.872 490.616 919.845 492.804 924.045C497.133 919.833 495.326 913.067 500.863 910.512C507.023 912.273 505.555 919.44 509.662 922.58C513.745 919.705 512.594 912.177 519.168 911.696C523.489 913.645 522.748 919.895 527.569 921.024C531.571 919.837 530.36 913.277 536.349 913.515C537.979 915.732 539.879 918.317 542.181 921.448C544.855 917.745 545.032 913.219 548.639 911.666C554.188 910.584 554.019 918.447 559.514 917.798C563.271 905.35 577.36 907.896 585.991 901.171ZM642.585 158.047C612.709 162.237 587.807 148.936 563.252 135.044C538.731 121.17 513.455 112.057 484.453 113.841C408.758 118.498 356.995 206.534 390.749 275.583C385.415 260.892 387.499 245.95 388.177 231C390.395 182.114 428.258 138.443 476.173 128.269C504.813 122.188 529.876 131.544 554.754 143.227C570.004 150.388 584.814 158.674 601.211 162.97C618.72 167.559 635.729 165.252 651.851 156.522C649.398 156.958 646.946 157.393 642.585 158.047ZM505.201 296.96C538.641 264.519 611.533 259.1 636.506 324.643C642.04 339.168 647.948 353.689 655.253 367.374C678.712 411.319 728.002 428.351 773.958 408.754C771.766 408.754 770.037 408.515 768.395 408.789C717.135 417.355 678.33 395.368 659.344 346.936C654.452 334.457 650.367 321.594 644.589 309.542C622.508 263.49 567.959 247.52 526.045 274.478C516.117 280.863 508.356 289.605 500.935 298.649C501.37 298.962 502.009 299.633 502.203 299.522C502.935 299.105 503.523 298.434 505.201 296.96ZM559.568 193.59C569.721 195.648 580.125 196.885 589.982 199.907C630.246 212.25 662.464 198.626 692.129 168.066C682.479 173.543 674.893 177.635 667.518 182.075C647.691 194.013 626.788 198.171 604.129 191.784C591.663 188.271 579.152 184.841 566.521 181.996C493.198 165.477 437.72 227.869 442.437 292.275C452.196 226.129 500.203 184.786 559.568 193.59ZM752.062 690.78C770.042 670.455 775.615 645.209 780.489 619.622C782.948 606.709 784.199 594.01 778.469 581.57C776.097 576.42 772.549 572.844 766.599 573.316C761.145 573.749 757.847 577.683 757.034 582.587C751.394 616.626 745.895 650.69 740.777 684.811C739.703 691.977 742.823 695.969 752.062 690.78ZM248.088 593.993C247.242 590.207 246.323 586.434 245.57 582.629C244.545 577.451 241.697 573.75 236.434 572.992C231.027 572.214 227.368 575.717 225.044 580.008C223.231 583.355 221.635 587.236 221.42 590.966C219.494 624.265 228.627 654.915 244.851 683.614C247.477 688.257 251.361 694.341 257.924 691.786C264.157 689.359 261.71 682.707 261.009 677.919C257.014 650.629 252.643 623.395 248.088 593.993ZM651.933 262.911C669.162 272.156 687.062 274.919 705.498 267.228C713.825 263.754 721.809 259.313 729.59 254.706C745.177 245.475 759.852 247.367 774.67 256.68C785.652 263.582 792.686 273.949 801.485 287.26C789.086 244.473 753.815 226.64 722.153 246.323C694.114 263.753 668.022 263.375 640.956 246.149C635.863 242.907 630.583 239.901 625.171 237.23C607.038 228.281 588.173 223.442 567.764 228.046C586.449 226.341 602.965 232.075 618.374 242.109C628.859 248.938 639.609 255.361 651.933 262.911ZM186.374 324.282C183.965 328.663 181.555 333.044 178.022 339.47C187.264 336.119 190.839 330.556 193.865 324.35C199.426 312.944 201.753 300.61 204.069 288.316C208.291 265.904 222.828 253.975 243.966 249.21C258.565 245.919 272.657 249.604 288.933 256.425C250.676 224.243 204.751 239.203 194.604 284.384C191.772 296.992 189.565 309.74 186.374 324.282ZM174.567 388.054C188.238 390.954 200.107 386.941 211.065 378.855C220.999 371.524 228.641 362.045 234.887 351.732C248.272 329.632 266.562 315.531 292.772 312.8C293.043 312.772 293.182 311.484 293.444 310.57C261.617 303.883 241.732 320.808 225.552 344.815C210.318 367.42 194.421 388.67 161.92 383.23C165.496 384.66 169.072 386.089 174.567 388.054ZM834.867 366.979C835.183 366.685 835.601 366.443 835.785 366.081C835.964 365.731 835.903 365.258 835.947 364.839C815.218 364.317 802.781 351.047 790.464 336.538C776.777 320.415 761.761 317.581 741.583 327.002C725.865 334.341 710.67 340.243 693.966 329.807C709.445 342.49 726.418 342.702 743.598 335.454C760.496 328.326 773.637 332.672 785.11 345.933C789.33 350.811 793.825 355.619 798.895 359.557C809.08 367.467 820.148 372.995 834.867 366.979ZM336.206 224.009C338.434 197.448 350.102 174.292 364.302 149.934C324.165 180.167 311.158 255.206 345.56 292.634C338.226 270.513 331.748 249.125 336.206 224.009ZM400.932 82.5258C413.72 78.4305 426.509 74.3352 441.83 69.4287C392.406 70.2302 356.865 89.8544 344.967 122.594C361.48 105.828 379.032 92.7733 400.932 82.5258ZM218.206 424.17C258.973 424.314 262.442 390.168 275.888 361.737C262.963 368.648 259.045 379.399 254.656 389.37C247.755 405.046 236.638 415.43 220.24 420.253C218.199 420.853 216.241 421.736 214.244 422.488C214.637 423.104 214.953 423.797 215.457 424.302C215.681 424.526 216.285 424.372 218.206 424.17ZM221.426 464.019C254.67 448.994 256.55 447.565 258.736 435.656C204.715 460.205 200.712 463.546 200.062 487.774C205.446 476.787 211.568 469.838 221.426 464.019ZM278.711 178.283C279.195 177.719 279.743 177.192 280.115 176.561C280.201 176.416 279.756 175.776 279.428 175.597C260.402 165.224 221.207 174.42 209.986 204.083C238.931 182.99 249.769 178.851 278.711 178.283ZM773.997 460.209C789.086 466.895 796.702 479.322 798.26 498.666C811.148 475.662 794.693 454.514 758.747 446.235C761.383 452.886 767.328 455.633 773.997 460.209ZM754.206 184.206C746.985 184.653 739.646 184.696 733.481 190.123C760.783 189.985 760.783 189.985 801.394 212.758C791.294 193.259 776.437 184.729 754.206 184.206ZM624.405 102.953C609.92 106.995 594.929 107.638 579.921 108.659C594.741 115.697 609.223 115.809 623.343 108.175C624.896 107.336 629.166 106.516 624.405 102.953ZM746.842 523.751C747.426 532.579 747.6 540.352 747.746 548.126C747.87 554.708 745.724 559.899 739.275 562.8C731.33 566.373 728.708 573.59 726.659 581.365C722.806 595.986 721.249 611.065 716.722 625.595C707.018 656.738 687.394 676.336 654.364 679.814C618.553 683.585 583.255 683.937 554.216 656.868C535.528 639.448 529.119 615.967 521.429 593.035C520.196 589.356 519.325 585.555 518.107 581.87C515.544 574.116 510.434 569.546 501.973 569.202C492.753 568.827 487.375 573.938 484.529 581.936C481.342 590.889 478.694 600.035 475.879 609.118C460.545 658.601 430.042 681.18 378.061 681.228C368.128 681.237 358.037 681.477 348.287 679.927C310.606 673.936 291.72 654.237 282.035 611.763C280.018 602.919 278.208 593.995 276.968 585.016C275.638 575.388 271.259 568.277 263.256 562.622C249.231 552.714 256.413 537.892 256.696 525.422C256.905 516.229 267.673 517.464 274.455 516.055C301.141 510.508 328.202 507.017 355.373 505.979C391.88 504.584 427.946 509.272 462.832 520.301C489.371 528.692 515.317 528.709 541.703 520.067C606.271 498.919 671.305 503.902 736.395 517.409C740.171 518.193 744.111 518.984 746.842 523.751ZM604.223 533.258C592.375 535.394 580.234 536.049 568.858 540.542C546.989 549.179 540.052 574.889 554.38 594.532C557.656 593.559 557.226 590.661 557.605 588.204C562.532 556.249 567.832 550.592 599.863 543.327C609.93 541.043 620.617 540.866 630.742 534.633C621.935 531.934 614.189 533.03 604.223 533.258ZM313.469 583.433C319.181 555.106 329.429 545.447 358.352 541.999C366.416 541.038 374.124 539.502 383.603 535.19C364.078 531.17 347.087 532.67 330.375 537.564C303.893 545.32 293.989 578.461 312.463 602.047C312.792 595.664 313.052 590.624 313.469 583.433ZM537.248 735.697C559.665 744.767 581.156 753.818 603.005 761.901C618.436 767.61 622.864 780.357 625.222 794.238C626.656 802.681 620.124 806.36 613.951 802.058C587.154 783.384 555.629 782.344 525.33 776.65C506.354 773.084 501.994 767.072 504.504 747.019C504.721 745.28 504.884 743.613 502.806 742.424C497.529 743.138 499.391 747.124 499.562 750.252C500.429 766.158 496.03 771.936 480.482 775.791C461.652 780.459 442.219 781.791 423.393 786.795C411.876 789.856 401.394 794.229 391.707 800.932C388.381 803.233 384.626 804.9 380.857 802.386C377.001 799.813 377.502 795.495 378.293 791.718C381.171 777.979 387.102 766.961 401.551 761.512C425.275 752.564 448.608 742.58 472.599 732.833C468.865 725.283 461.647 725.804 455.89 723.814C449.175 721.492 443.463 718.002 445.344 710.02C447.346 701.529 454.124 700.715 461.789 701.858C470.307 703.128 477.003 707.748 483.764 712.412C495.842 720.745 507.768 720.987 519.787 712.173C526.437 707.296 533.429 702.91 541.887 701.876C548.847 701.025 555.535 702.078 557.597 709.775C559.576 717.166 553.926 720.55 548.048 723.024C544.472 724.53 540.684 725.6 537.263 727.385C533.429 729.385 532.302 732.196 537.248 735.697ZM530.98 781.026C546.981 785.424 561.119 792.32 576.815 793.799C580.491 794.145 583.661 795.925 583.771 800.124C583.898 804.986 580.04 807.285 576.238 807.526C567.229 808.097 557.952 808.941 549.163 807.445C536.065 805.216 523.457 805.619 510.744 808.954C507.847 809.714 504.414 811.085 501.896 810.223C478.941 802.361 455.678 808.602 432.583 808.17C426.921 808.064 419.907 807.618 419.503 800.595C419.093 793.444 426.376 794.726 431.17 793.517C439.519 791.411 448.057 789.613 455.987 786.387C469.285 780.979 482.198 778.036 495.9 784.95C500.309 787.175 505.214 786.172 509.679 783.993C516.091 780.864 522.857 780.091 530.98 781.026Z" stroke="white" stroke-width="15"/>
<path fill-rule="evenodd" clip-rule="evenodd" d="M434.121 36H434.104C430.305 36.0002 426.549 36.1489 422.838 36.4376C367.097 40.7747 321.772 76.7125 301.94 115.661C294.273 130.717 286.383 134.701 270.67 134.465C230.905 133.866 200.088 152.051 177.932 184.674C159.223 212.22 152.302 243.181 155.2 276.013C156.714 293.156 152.246 306.932 141.121 320.037C121.199 343.505 120.412 369.446 135.066 395.984C139.232 403.529 144.234 410.665 149.354 417.62C157.974 429.33 163.697 442.348 166.917 456.354C170.981 474.027 176.223 491.347 181.465 508.669C183.476 515.315 185.488 521.963 187.433 528.63C188.715 533.024 190.368 537.378 192.024 541.74C196.402 553.272 200.803 564.864 198.432 577.419C191.049 616.511 202.657 651.946 218.045 686.598C224.649 701.47 234.877 715.089 251.524 718.942C266.507 722.409 270.549 731.29 271.622 744.574C275.404 791.42 295.077 830.755 328.434 863.599C331.59 866.706 334.743 869.821 337.894 872.933C354.431 889.269 370.961 905.598 388.233 921.201C421.363 951.13 460.233 963.979 504.219 964H504.438L504.532 964L505.886 963.995C558.956 963.632 599.81 938.243 636.475 901.657C639.111 899.069 641.659 896.53 644.159 894.039L644.168 894.03C649.317 888.899 654.267 883.967 659.378 879.209C700.251 841.158 729.027 796.795 732.12 739.216C732.695 728.522 737.172 722.747 747.758 720.474C759.651 717.921 769.341 710.761 775.888 700.836C798.727 666.208 810.864 627.752 804.76 586.653C802.048 568.399 804.294 553.424 810.699 537.194C817.603 519.698 822.818 501.555 828.034 483.41C837.923 449.002 847.815 414.587 869.234 384.568C870.434 382.886 870.987 380.733 871.538 378.59C871.759 377.727 871.981 376.865 872.244 376.037C873.663 371.57 874.585 367.126 875 362.748L875 352.21C874.056 342.607 870.474 333.524 864.145 325.457C845.273 301.401 839.697 274.776 841.814 245.167C842.921 229.686 842.005 214.335 834.958 199.554C821.976 172.325 798.793 158.658 771.958 149.204C771.806 149.15 771.654 149.097 771.502 149.043L770.952 148.851C763.907 146.382 756.93 143.938 753.174 136.53C739.255 109.075 715.56 95.64 686.291 90.8637C675.339 89.0765 667.112 84.3176 660.581 75.303C655.055 67.6755 646.958 61.2815 637.363 64.0043C620.783 68.7096 607.253 62.2766 593.565 55.7682C592.179 55.1095 590.791 54.4492 589.399 53.8005C566.978 43.3503 543.957 40.0281 520.161 48.1937C509.733 51.7721 500.288 50.7065 490.041 46.7409C470.787 39.2886 451.992 36.0011 434.121 36Z" fill="white"/>
<path d="M636.475 901.657C599.81 938.243 558.956 963.632 505.886 963.995C505.434 963.998 504.983 964 504.532 964C504.5 964 504.469 964 504.438 964C504.365 964 504.292 964 504.219 964C460.233 963.979 421.363 951.13 388.233 921.201C367.67 902.625 348.158 883.019 328.434 863.599C295.077 830.755 275.404 791.42 271.622 744.574C270.549 731.29 266.507 722.409 251.524 718.942C234.877 715.089 224.649 701.47 218.045 686.598C202.657 651.946 191.049 616.511 198.432 577.419C201.7 560.115 192.104 544.641 187.433 528.63C180.418 504.586 172.541 480.808 166.917 456.354C163.697 442.348 157.974 429.33 149.354 417.62C144.234 410.665 139.232 403.529 135.066 395.984C120.412 369.446 121.199 343.505 141.121 320.037C152.246 306.932 156.714 293.156 155.2 276.013C152.302 243.181 159.223 212.22 177.932 184.674C200.088 152.051 230.905 133.866 270.67 134.465C286.383 134.701 294.273 130.717 301.94 115.661C321.772 76.7125 367.097 40.7747 422.838 36.4376C426.549 36.1489 430.305 36.0002 434.104 36C434.109 36 434.115 36 434.121 36C451.992 36.0011 470.787 39.2886 490.041 46.7409C500.288 50.7065 509.733 51.7721 520.161 48.1937C543.957 40.0281 566.978 43.3503 589.399 53.8005C604.545 60.8598 619.104 69.1859 637.363 64.0043C646.958 61.2815 655.055 67.6755 660.581 75.303C667.112 84.3176 675.339 89.0765 686.291 90.8637C715.56 95.64 739.255 109.075 753.174 136.53C757.11 144.292 764.577 146.603 771.958 149.204C798.793 158.658 821.976 172.325 834.958 199.554C842.005 214.335 842.921 229.686 841.814 245.167C839.697 274.776 845.273 301.401 864.145 325.457C870.474 333.524 874.056 342.607 875 352.21C875.339 355.663 875.337 359.184 875 362.748C874.585 367.126 873.663 371.57 872.244 376.037C871.328 378.921 870.917 382.209 869.234 384.568C836.52 430.418 830.697 486.52 810.699 537.194C804.294 553.424 802.048 568.399 804.76 586.653C810.864 627.752 798.727 666.208 775.888 700.836C769.341 710.761 759.651 717.921 747.758 720.474C737.172 722.747 732.695 728.522 732.12 739.216C729.027 796.795 700.251 841.158 659.378 879.209C651.781 886.281 644.542 893.737 636.475 901.657ZM585.991 901.171C591.441 904.171 591.277 898.738 592.76 896.37C594.315 893.887 594.942 889.11 598.113 889.983C608.718 892.902 612.706 884.161 618.381 879.129C637.496 862.181 654.722 843.315 671.852 824.398C687.624 806.979 698.011 786.466 701.863 763.48C711.641 705.133 724.972 647.506 736.016 589.423C736.992 584.293 737.163 577.617 741.363 575.205C760.225 564.374 757.292 546.593 757.887 529.43C758.353 515.993 752.12 508.506 739.471 507.642C724.411 506.615 718.154 499.127 717.955 484.649C717.773 471.385 711.271 463.678 697.831 460.096C661.212 450.335 636.085 426.818 620.333 392.635C614.009 378.911 607.895 364.974 598.782 352.775C586.063 335.749 569.056 329.889 548.426 334.611C533.085 338.122 519.515 345.998 505.484 352.641C492.355 358.858 478.966 362.187 464.248 361.941C439.701 361.53 418.289 350.706 395.881 343.119C350.782 327.848 306.922 353.826 301.595 401.325C298.222 431.406 297.756 461.601 280.271 488.014C278.921 490.054 278.39 492.934 278.297 495.453C278.015 503.051 273.638 505.963 266.751 506.819C259.849 507.676 252.888 508.87 248.106 514.658C239.662 524.878 243.152 561.153 254.179 568.74C262.066 574.167 265.8 581.029 267.514 589.837C277.158 639.415 287.232 688.912 296.404 738.577C302.022 768.994 308.429 798.633 329.735 822.928C349.739 845.738 371.719 866.53 393.311 887.737C394.795 889.195 396.709 890.622 398.664 891.122C406.208 893.053 424.141 904.564 428.227 910.765C438.803 900.736 438.867 914.99 444.204 917.8C448.424 917.478 448.449 911.069 453.37 911.655C457.647 913.65 457.84 918.597 460.259 922.165C463.567 919.962 463.272 914.835 467.86 913.364C472.042 913.057 471.773 919.947 476.059 919.488C480.617 918.348 480.093 911.078 486.636 912.205C488.546 915.872 490.616 919.845 492.804 924.045C497.133 919.833 495.326 913.067 500.863 910.512C507.023 912.273 505.555 919.44 509.662 922.58C513.745 919.705 512.594 912.177 519.168 911.696C523.489 913.645 522.748 919.895 527.569 921.024C531.571 919.837 530.36 913.277 536.349 913.515C537.979 915.732 539.879 918.317 542.181 921.448C544.855 917.745 545.032 913.219 548.639 911.666C554.188 910.584 554.019 918.447 559.514 917.798C563.271 905.35 577.36 907.896 585.991 901.171ZM642.585 158.047C612.709 162.237 587.807 148.936 563.252 135.044C538.731 121.17 513.455 112.057 484.453 113.841C408.758 118.498 356.995 206.534 390.749 275.583C385.415 260.892 387.499 245.95 388.177 231C390.395 182.114 428.258 138.443 476.173 128.269C504.813 122.188 529.876 131.544 554.754 143.227C570.004 150.388 584.814 158.674 601.211 162.97C618.72 167.559 635.729 165.252 651.851 156.522C649.398 156.958 646.946 157.393 642.585 158.047ZM505.201 296.96C538.641 264.519 611.533 259.1 636.506 324.643C642.04 339.168 647.948 353.689 655.253 367.374C678.712 411.319 728.002 428.351 773.958 408.754C771.766 408.754 770.037 408.515 768.395 408.789C717.135 417.355 678.33 395.368 659.344 346.936C654.452 334.457 650.367 321.594 644.589 309.542C622.508 263.49 567.959 247.52 526.045 274.478C516.117 280.863 508.356 289.605 500.935 298.649C501.37 298.962 502.009 299.633 502.203 299.522C502.935 299.105 503.523 298.434 505.201 296.96ZM559.568 193.59C569.721 195.648 580.125 196.885 589.982 199.907C630.246 212.25 662.464 198.626 692.129 168.066C682.479 173.543 674.893 177.635 667.518 182.075C647.691 194.013 626.788 198.171 604.129 191.784C591.663 188.271 579.152 184.841 566.521 181.996C493.198 165.477 437.72 227.869 442.437 292.275C452.196 226.129 500.203 184.786 559.568 193.59ZM752.062 690.78C770.042 670.455 775.615 645.209 780.489 619.622C782.948 606.709 784.199 594.01 778.469 581.57C776.097 576.42 772.549 572.844 766.599 573.316C761.145 573.749 757.847 577.683 757.034 582.587C751.394 616.626 745.895 650.69 740.777 684.811C739.703 691.977 742.823 695.969 752.062 690.78ZM248.088 593.993C247.242 590.207 246.323 586.434 245.57 582.629C244.545 577.451 241.697 573.75 236.434 572.992C231.027 572.214 227.368 575.717 225.044 580.008C223.231 583.355 221.635 587.236 221.42 590.966C219.494 624.265 228.627 654.915 244.851 683.614C247.477 688.257 251.361 694.341 257.924 691.786C264.157 689.359 261.71 682.707 261.009 677.919C257.014 650.629 252.643 623.395 248.088 593.993ZM651.933 262.911C669.162 272.156 687.062 274.919 705.498 267.228C713.825 263.754 721.809 259.313 729.59 254.706C745.177 245.475 759.852 247.367 774.67 256.68C785.652 263.582 792.686 273.949 801.485 287.26C789.086 244.473 753.815 226.64 722.153 246.323C694.114 263.753 668.022 263.375 640.956 246.149C635.863 242.907 630.583 239.901 625.171 237.23C607.038 228.281 588.173 223.442 567.764 228.046C586.449 226.341 602.965 232.075 618.374 242.109C628.859 248.938 639.609 255.361 651.933 262.911ZM186.374 324.282C183.965 328.663 181.555 333.044 178.022 339.47C187.264 336.119 190.839 330.556 193.865 324.35C199.426 312.944 201.753 300.61 204.069 288.316C208.291 265.904 222.828 253.975 243.966 249.21C258.565 245.919 272.657 249.604 288.933 256.425C250.676 224.243 204.751 239.203 194.604 284.384C191.772 296.992 189.565 309.74 186.374 324.282ZM174.567 388.054C188.238 390.954 200.107 386.941 211.065 378.855C220.999 371.524 228.641 362.045 234.887 351.732C248.272 329.632 266.562 315.531 292.772 312.8C293.043 312.772 293.182 311.484 293.444 310.57C261.617 303.883 241.732 320.808 225.552 344.815C210.318 367.42 194.421 388.67 161.92 383.23C165.496 384.66 169.072 386.089 174.567 388.054ZM834.867 366.979C835.183 366.685 835.601 366.443 835.785 366.081C835.964 365.731 835.903 365.258 835.947 364.839C815.218 364.317 802.781 351.047 790.464 336.538C776.777 320.415 761.761 317.581 741.583 327.002C725.865 334.341 710.67 340.243 693.966 329.807C709.445 342.49 726.418 342.702 743.598 335.454C760.496 328.326 773.637 332.672 785.11 345.933C789.33 350.811 793.825 355.619 798.895 359.557C809.08 367.467 820.148 372.995 834.867 366.979ZM336.206 224.009C338.434 197.448 350.102 174.292 364.302 149.934C324.165 180.167 311.158 255.206 345.56 292.634C338.226 270.513 331.748 249.125 336.206 224.009ZM400.932 82.5258C413.72 78.4305 426.509 74.3352 441.83 69.4287C392.406 70.2302 356.865 89.8544 344.967 122.594C361.48 105.828 379.032 92.7733 400.932 82.5258ZM218.206 424.17C258.973 424.314 262.442 390.168 275.888 361.737C262.963 368.648 259.045 379.399 254.656 389.37C247.755 405.046 236.638 415.43 220.24 420.253C218.199 420.853 216.241 421.736 214.244 422.488C214.637 423.104 214.953 423.797 215.457 424.302C215.681 424.526 216.285 424.372 218.206 424.17ZM221.426 464.019C254.67 448.994 256.55 447.565 258.736 435.656C204.715 460.205 200.712 463.546 200.062 487.774C205.446 476.787 211.568 469.838 221.426 464.019ZM278.711 178.283C279.195 177.719 279.743 177.192 280.115 176.561C280.201 176.416 279.756 175.776 279.428 175.597C260.402 165.224 221.207 174.42 209.986 204.083C238.931 182.99 249.769 178.851 278.711 178.283ZM773.997 460.209C789.086 466.895 796.702 479.322 798.26 498.666C811.148 475.662 794.693 454.514 758.747 446.235C761.383 452.886 767.328 455.633 773.997 460.209ZM754.206 184.206C746.985 184.653 739.646 184.696 733.481 190.123C760.783 189.985 760.783 189.985 801.394 212.758C791.294 193.259 776.437 184.729 754.206 184.206ZM624.405 102.953C609.92 106.995 594.929 107.638 579.921 108.659C594.741 115.697 609.223 115.809 623.343 108.175C624.896 107.336 629.166 106.516 624.405 102.953Z" fill="url(#paint0_linear_17_1376)"/>
<path d="M746.842 523.751C747.426 532.579 747.6 540.352 747.746 548.126C747.87 554.708 745.724 559.899 739.275 562.8C731.33 566.373 728.708 573.59 726.659 581.365C722.806 595.986 721.249 611.065 716.722 625.595C707.018 656.738 687.394 676.336 654.364 679.814C618.553 683.585 583.255 683.937 554.216 656.868C535.528 639.448 529.119 615.967 521.429 593.035C520.196 589.356 519.325 585.555 518.107 581.87C515.544 574.116 510.434 569.546 501.973 569.202C492.753 568.827 487.375 573.938 484.529 581.936C481.342 590.889 478.694 600.035 475.879 609.118C460.545 658.601 430.042 681.18 378.061 681.228C368.128 681.237 358.037 681.477 348.287 679.927C310.606 673.936 291.72 654.237 282.035 611.763C280.018 602.919 278.208 593.995 276.968 585.016C275.638 575.388 271.259 568.277 263.256 562.622C249.231 552.714 256.413 537.892 256.696 525.422C256.905 516.229 267.673 517.464 274.455 516.055C301.141 510.508 328.202 507.017 355.373 505.979C391.88 504.584 427.946 509.272 462.832 520.301C489.371 528.692 515.317 528.709 541.703 520.067C606.271 498.919 671.305 503.902 736.395 517.409C740.171 518.193 744.111 518.984 746.842 523.751ZM604.223 533.258C592.375 535.394 580.234 536.049 568.858 540.542C546.989 549.179 540.052 574.889 554.38 594.532C557.656 593.559 557.226 590.661 557.605 588.204C562.532 556.249 567.832 550.592 599.863 543.327C609.93 541.043 620.617 540.866 630.742 534.633C621.935 531.934 614.189 533.03 604.223 533.258ZM313.469 583.433C319.181 555.106 329.429 545.447 358.352 541.999C366.416 541.038 374.124 539.502 383.603 535.19C364.078 531.17 347.087 532.67 330.375 537.564C303.893 545.32 293.989 578.461 312.463 602.047C312.792 595.664 313.052 590.624 313.469 583.433Z" fill="url(#paint1_linear_17_1376)"/>
<path d="M537.248 735.697C559.665 744.767 581.156 753.818 603.005 761.901C618.436 767.61 622.864 780.357 625.222 794.238C626.656 802.681 620.124 806.36 613.951 802.058C587.154 783.384 555.629 782.344 525.33 776.65C506.354 773.084 501.994 767.072 504.504 747.019C504.721 745.28 504.884 743.613 502.806 742.424C497.529 743.138 499.391 747.124 499.562 750.252C500.429 766.158 496.03 771.936 480.482 775.791C461.652 780.459 442.219 781.791 423.393 786.795C411.876 789.856 401.394 794.229 391.707 800.932C388.381 803.233 384.626 804.9 380.857 802.386C377.001 799.813 377.502 795.495 378.293 791.718C381.171 777.979 387.102 766.961 401.551 761.512C425.275 752.564 448.608 742.58 472.599 732.833C468.865 725.283 461.647 725.804 455.89 723.814C449.175 721.492 443.463 718.002 445.344 710.02C447.346 701.529 454.124 700.715 461.789 701.858C470.307 703.128 477.003 707.748 483.764 712.412C495.842 720.745 507.768 720.987 519.787 712.173C526.437 707.296 533.429 702.91 541.887 701.876C548.847 701.025 555.535 702.078 557.597 709.775C559.576 717.166 553.926 720.55 548.048 723.024C544.472 724.53 540.684 725.6 537.263 727.385C533.429 729.385 532.302 732.196 537.248 735.697Z" fill="url(#paint2_linear_17_1376)"/>
<path d="M530.98 781.026C546.981 785.424 561.119 792.32 576.815 793.799C580.491 794.145 583.661 795.925 583.771 800.124C583.898 804.986 580.04 807.285 576.238 807.526C567.229 808.097 557.952 808.941 549.163 807.445C536.065 805.216 523.457 805.619 510.744 808.954C507.847 809.714 504.414 811.085 501.896 810.223C478.941 802.361 455.678 808.602 432.583 808.17C426.921 808.064 419.907 807.618 419.503 800.595C419.093 793.444 426.376 794.726 431.17 793.517C439.519 791.411 448.057 789.613 455.987 786.387C469.285 780.979 482.198 778.036 495.9 784.95C500.309 787.175 505.214 786.172 509.679 783.993C516.091 780.864 522.857 780.091 530.98 781.026Z" fill="url(#paint3_linear_17_1376)"/>
<defs>
<linearGradient id="paint0_linear_17_1376" x1="500.127" y1="36" x2="500.127" y2="964" gradientUnits="userSpaceOnUse">
<stop stop-color="#54219E"/>
<stop offset="1" stop-color="#861563"/>
</linearGradient>
<linearGradient id="paint1_linear_17_1376" x1="500.127" y1="36" x2="500.127" y2="964" gradientUnits="userSpaceOnUse">
<stop stop-color="#54219E"/>
<stop offset="1" stop-color="#861563"/>
</linearGradient>
<linearGradient id="paint2_linear_17_1376" x1="500.127" y1="36" x2="500.127" y2="964" gradientUnits="userSpaceOnUse">
<stop stop-color="#54219E"/>
<stop offset="1" stop-color="#861563"/>
</linearGradient>
<linearGradient id="paint3_linear_17_1376" x1="500.127" y1="36" x2="500.127" y2="964" gradientUnits="userSpaceOnUse">
<stop stop-color="#54219E"/>
<stop offset="1" stop-color="#861563"/>
</linearGradient>
</defs>
</svg>
